<svg xmlns="http://www.w3.org/2000/svg" width="1200" height="860" viewBox="0 0 1200 860">
<rect x="0.0" y="0.0" width="1200.0" height="860.0" rx="0" fill="#FFFFFF"/>
<text x="48.0" y="54.0" font-family="Inter, Segoe UI, Arial, sans-serif" font-size="28" font-weight="800" fill="#111827" text-anchor="start">Classifier Comparison and Long-Tail Category Distribution</text>
<text x="48.0" y="82.0" font-family="Inter, Segoe UI, Arial, sans-serif" font-size="14" font-weight="400" fill="#6B7280" text-anchor="start">Three classification methods are compared with quality metrics, training cost, and category imbalance.</text>
<rect x="36.0" y="112.0" width="690.0" height="310.0" rx="8" fill="#FFFFFF" stroke="#E5E7EB"/>
<rect x="754.0" y="112.0" width="410.0" height="310.0" rx="8" fill="#FFFFFF" stroke="#E5E7EB"/>
<rect x="36.0" y="466.0" width="1128.0" height="330.0" rx="8" fill="#FFFFFF" stroke="#E5E7EB"/>
<text x="66.0" y="142.0" font-family="Inter, Segoe UI, Arial, sans-serif" font-size="18" font-weight="700" fill="#111827" text-anchor="start">Model Quality: Accuracy vs. Macro-F1</text>
<line x1="90.0" y1="312.0" x2="672.0" y2="312.0" stroke="#E5E7EB" stroke-width="1"/>
<text x="82.0" y="317.0" font-family="Inter, Segoe UI, Arial, sans-serif" font-size="11" font-weight="400" fill="#6B7280" text-anchor="end">0.0</text>
<line x1="90.0" y1="285.2" x2="672.0" y2="285.2" stroke="#E5E7EB" stroke-width="1"/>
<text x="82.0" y="290.2" font-family="Inter, Segoe UI, Arial, sans-serif" font-size="11" font-weight="400" fill="#6B7280" text-anchor="end">0.2</text>
<line x1="90.0" y1="258.4" x2="672.0" y2="258.4" stroke="#E5E7EB" stroke-width="1"/>
<text x="82.0" y="263.4" font-family="Inter, Segoe UI, Arial, sans-serif" font-size="11" font-weight="400" fill="#6B7280" text-anchor="end">0.4</text>
<line x1="90.0" y1="231.6" x2="672.0" y2="231.6" stroke="#E5E7EB" stroke-width="1"/>
<text x="82.0" y="236.6" font-family="Inter, Segoe UI, Arial, sans-serif" font-size="11" font-weight="400" fill="#6B7280" text-anchor="end">0.6</text>
<line x1="90.0" y1="204.8" x2="672.0" y2="204.8" stroke="#E5E7EB" stroke-width="1"/>
<text x="82.0" y="209.8" font-family="Inter, Segoe UI, Arial, sans-serif" font-size="11" font-weight="400" fill="#6B7280" text-anchor="end">0.8</text>
<line x1="90.0" y1="178.0" x2="672.0" y2="178.0" stroke="#E5E7EB" stroke-width="1"/>
<text x="82.0" y="183.0" font-family="Inter, Segoe UI, Arial, sans-serif" font-size="11" font-weight="400" fill="#6B7280" text-anchor="end">1.0</text>
<line x1="90.0" y1="178.0" x2="90.0" y2="312.0" stroke="#9CA3AF" stroke-width="1"/>
<line x1="90.0" y1="312.0" x2="672.0" y2="312.0" stroke="#9CA3AF" stroke-width="1"/>
<rect x="149.0" y="200.5" width="34.0" height="111.5" rx="4" fill="#2563EB"/>
<rect x="191.0" y="205.7" width="34.0" height="106.3" rx="4" fill="#16A34A"/>
<text x="166.0" y="194.5" font-family="Inter, Segoe UI, Arial, sans-serif" font-size="11" font-weight="600" fill="#111827" text-anchor="middle">0.83</text>
<text x="208.0" y="199.7" font-family="Inter, Segoe UI, Arial, sans-serif" font-size="11" font-weight="600" fill="#111827" text-anchor="middle">0.79</text>
<text x="187.0" y="340.0" font-family="Inter, Segoe UI, Arial, sans-serif" font-size="12" font-weight="600" fill="#111827" text-anchor="middle">Naive Bayes</text>
<rect x="343.0" y="209.1" width="34.0" height="102.9" rx="4" fill="#2563EB"/>
<rect x="385.0" y="216.6" width="34.0" height="95.4" rx="4" fill="#16A34A"/>
<text x="360.0" y="203.1" font-family="Inter, Segoe UI, Arial, sans-serif" font-size="11" font-weight="600" fill="#111827" text-anchor="middle">0.77</text>
<text x="402.0" y="210.6" font-family="Inter, Segoe UI, Arial, sans-serif" font-size="11" font-weight="600" fill="#111827" text-anchor="middle">0.71</text>
<text x="381.0" y="340.0" font-family="Inter, Segoe UI, Arial, sans-serif" font-size="12" font-weight="600" fill="#111827" text-anchor="middle">Logistic Regression</text>
<rect x="537.0" y="202.7" width="34.0" height="109.3" rx="4" fill="#2563EB"/>
<rect x="579.0" y="209.3" width="34.0" height="102.7" rx="4" fill="#16A34A"/>
<text x="554.0" y="196.7" font-family="Inter, Segoe UI, Arial, sans-serif" font-size="11" font-weight="600" fill="#111827" text-anchor="middle">0.82</text>
<text x="596.0" y="203.3" font-family="Inter, Segoe UI, Arial, sans-serif" font-size="11" font-weight="600" fill="#111827" text-anchor="middle">0.77</text>
<text x="575.0" y="340.0" font-family="Inter, Segoe UI, Arial, sans-serif" font-size="12" font-weight="600" fill="#111827" text-anchor="middle">Linear SVM</text>
<rect x="281.0" y="365.0" width="12.0" height="12.0" rx="2" fill="#2563EB"/>
<text x="299.0" y="375.0" font-family="Inter, Segoe UI, Arial, sans-serif" font-size="12" font-weight="400" fill="#6B7280" text-anchor="start">Accuracy</text>
<rect x="391.0" y="365.0" width="12.0" height="12.0" rx="2" fill="#16A34A"/>
<text x="409.0" y="375.0" font-family="Inter, Segoe UI, Arial, sans-serif" font-size="12" font-weight="400" fill="#6B7280" text-anchor="start">Macro-F1</text>
<text x="784.0" y="142.0" font-family="Inter, Segoe UI, Arial, sans-serif" font-size="18" font-weight="700" fill="#111827" text-anchor="start">Training Time</text>
<text x="784.0" y="197.0" font-family="Inter, Segoe UI, Arial, sans-serif" font-size="13" font-weight="600" fill="#111827" text-anchor="start">Naive Bayes</text>
<rect x="954.0" y="180.0" width="140.0" height="22.0" rx="3" fill="#F3F4F6"/>
<rect x="954.0" y="180.0" width="3.3" height="22.0" rx="3" fill="#2F80ED"/>
<text x="965.3" y="196.0" font-family="Inter, Segoe UI, Arial, sans-serif" font-size="12" font-weight="600" fill="#111827" text-anchor="start">0.0055s</text>
<text x="784.0" y="264.3" font-family="Inter, Segoe UI, Arial, sans-serif" font-size="13" font-weight="600" fill="#111827" text-anchor="start">Logistic Regression</text>
<rect x="954.0" y="247.3" width="140.0" height="22.0" rx="3" fill="#F3F4F6"/>
<rect x="954.0" y="247.3" width="140.0" height="22.0" rx="3" fill="#F2994A"/>
<text x="1102.0" y="263.3" font-family="Inter, Segoe UI, Arial, sans-serif" font-size="12" font-weight="600" fill="#111827" text-anchor="start">0.2366s</text>
<text x="784.0" y="331.7" font-family="Inter, Segoe UI, Arial, sans-serif" font-size="13" font-weight="600" fill="#111827" text-anchor="start">Linear SVM</text>
<rect x="954.0" y="314.7" width="140.0" height="22.0" rx="3" fill="#F3F4F6"/>
<rect x="954.0" y="314.7" width="76.1" height="22.0" rx="3" fill="#27AE60"/>
<text x="1038.1" y="330.7" font-family="Inter, Segoe UI, Arial, sans-serif" font-size="12" font-weight="600" fill="#111827" text-anchor="start">0.1286s</text>
<text x="784.0" y="390.0" font-family="Inter, Segoe UI, Arial, sans-serif" font-size="12" font-weight="400" fill="#6B7280" text-anchor="start">Shorter bars indicate faster training.</text>
<text x="66.0" y="498.0" font-family="Inter, Segoe UI, Arial, sans-serif" font-size="18" font-weight="700" fill="#111827" text-anchor="start">Long-Tail Category Distribution in the Full FAQ Dataset</text>
<text x="66.0" y="549.0" font-family="Inter, Segoe UI, Arial, sans-serif" font-size="12" font-weight="600" fill="#111827" text-anchor="start">Campus life</text>
<rect x="296.0" y="532.0" width="746.0" height="18.0" rx="3" fill="#F3F4F6"/>
<rect x="296.0" y="532.0" width="746.0" height="18.0" rx="3" fill="#374151"/>
<text x="1050.0" y="546.0" font-family="Inter, Segoe UI, Arial, sans-serif" font-size="12" font-weight="600" fill="#111827" text-anchor="start">193</text>
<text x="66.0" y="573.0" font-family="Inter, Segoe UI, Arial, sans-serif" font-size="12" font-weight="600" fill="#111827" text-anchor="start">Accommodation &amp; Living</text>
<rect x="296.0" y="556.0" width="746.0" height="18.0" rx="3" fill="#F3F4F6"/>
<rect x="296.0" y="556.0" width="363.3" height="18.0" rx="3" fill="#374151"/>
<text x="667.3" y="570.0" font-family="Inter, Segoe UI, Arial, sans-serif" font-size="12" font-weight="600" fill="#111827" text-anchor="start">94</text>
<text x="66.0" y="597.0" font-family="Inter, Segoe UI, Arial, sans-serif" font-size="12" font-weight="600" fill="#111827" text-anchor="start">Academic Affairs</text>
<rect x="296.0" y="580.0" width="746.0" height="18.0" rx="3" fill="#F3F4F6"/>
<rect x="296.0" y="580.0" width="274.4" height="18.0" rx="3" fill="#374151"/>
<text x="578.4" y="594.0" font-family="Inter, Segoe UI, Arial, sans-serif" font-size="12" font-weight="600" fill="#111827" text-anchor="start">71</text>
<text x="66.0" y="621.0" font-family="Inter, Segoe UI, Arial, sans-serif" font-size="12" font-weight="400" fill="#111827" text-anchor="start">Registration &amp; Orientation</text>
<rect x="296.0" y="604.0" width="746.0" height="18.0" rx="3" fill="#F3F4F6"/>
<rect x="296.0" y="604.0" width="247.4" height="18.0" rx="3" fill="#6B7280"/>
<text x="551.4" y="618.0" font-family="Inter, Segoe UI, Arial, sans-serif" font-size="12" font-weight="600" fill="#111827" text-anchor="start">64</text>
<text x="66.0" y="645.0" font-family="Inter, Segoe UI, Arial, sans-serif" font-size="12" font-weight="400" fill="#111827" text-anchor="start">Transportation</text>
<rect x="296.0" y="628.0" width="746.0" height="18.0" rx="3" fill="#F3F4F6"/>
<rect x="296.0" y="628.0" width="204.9" height="18.0" rx="3" fill="#6B7280"/>
<text x="508.9" y="642.0" font-family="Inter, Segoe UI, Arial, sans-serif" font-size="12" font-weight="600" fill="#111827" text-anchor="start">53</text>
<text x="66.0" y="669.0" font-family="Inter, Segoe UI, Arial, sans-serif" font-size="12" font-weight="400" fill="#111827" text-anchor="start">Campus Services</text>
<rect x="296.0" y="652.0" width="746.0" height="18.0" rx="3" fill="#F3F4F6"/>
<rect x="296.0" y="652.0" width="201.0" height="18.0" rx="3" fill="#6B7280"/>
<text x="505.0" y="666.0" font-family="Inter, Segoe UI, Arial, sans-serif" font-size="12" font-weight="600" fill="#111827" text-anchor="start">52</text>
<text x="66.0" y="693.0" font-family="Inter, Segoe UI, Arial, sans-serif" font-size="12" font-weight="400" fill="#111827" text-anchor="start">Finance &amp; Fees</text>
<rect x="296.0" y="676.0" width="746.0" height="18.0" rx="3" fill="#F3F4F6"/>
<rect x="296.0" y="676.0" width="201.0" height="18.0" rx="3" fill="#6B7280"/>
<text x="505.0" y="690.0" font-family="Inter, Segoe UI, Arial, sans-serif" font-size="12" font-weight="600" fill="#111827" text-anchor="start">52</text>
<text x="66.0" y="717.0" font-family="Inter, Segoe UI, Arial, sans-serif" font-size="12" font-weight="400" fill="#111827" text-anchor="start">University Platforms &amp; IT Support</text>
<rect x="296.0" y="700.0" width="746.0" height="18.0" rx="3" fill="#F3F4F6"/>
<rect x="296.0" y="700.0" width="166.2" height="18.0" rx="3" fill="#6B7280"/>
<text x="470.2" y="714.0" font-family="Inter, Segoe UI, Arial, sans-serif" font-size="12" font-weight="600" fill="#111827" text-anchor="start">43</text>
<text x="66.0" y="746.0" font-family="Inter, Segoe UI, Arial, sans-serif" font-size="12" font-weight="400" fill="#6B7280" text-anchor="start">Top 3 categories: 358/622 samples (57.6%); remaining 5 categories form the tail.</text>
<text x="66.0" y="812.0" font-family="Inter, Segoe UI, Arial, sans-serif" font-size="12" font-weight="400" fill="#6B7280" text-anchor="start">Note: model metrics come from results/model_comparison.csv; long-tail bars use data/processed/faq_dataset.jsonl.</text>
</svg>